<svg width="379" height="140" viewBox="0 0 379 140" fill="none" xmlns="http://www.w3.org/2000/svg">
<path d="M323.576 140H13L67.4256 133H379L323.576 140Z" fill="white"/>
<path d="M58.6608 30C58.7972 28.5 58.4335 27.3258 57.5699 26.4773C56.7063 25.6136 55.2517 25.1818 53.2063 25.1818C51.9032 25.1818 50.8123 25.3333 49.9335 25.6364C49.0699 25.9394 48.3956 26.3561 47.9108 26.8864C47.4411 27.4167 47.1456 28.0303 47.0244 28.7273C46.8881 29.2727 46.8956 29.7727 47.0472 30.2273C47.2138 30.6667 47.5244 31.0682 47.979 31.4318C48.4487 31.7955 49.0623 32.1212 49.8199 32.4091C50.5926 32.697 51.5093 32.9545 52.5699 33.1818L56.2063 34C58.6911 34.5455 60.7744 35.2652 62.4563 36.1591C64.1532 37.0379 65.4866 38.0833 66.4563 39.2955C67.426 40.5076 68.0623 41.8636 68.3653 43.3636C68.6835 44.8636 68.6911 46.5 68.3881 48.2727C67.8729 51.3333 66.6835 53.9242 64.8199 56.0455C62.9563 58.1667 60.5244 59.7803 57.5244 60.8864C54.5244 61.9924 51.0547 62.5455 47.1153 62.5455C43.085 62.5455 39.6608 61.947 36.8426 60.75C34.0396 59.5379 32.0093 57.6894 30.7517 55.2045C29.5093 52.7045 29.2063 49.5152 29.8426 45.6364H41.8426C41.6608 47.0606 41.8123 48.2576 42.2972 49.2273C42.782 50.197 43.5623 50.9318 44.6381 51.4318C45.7138 51.9318 47.0547 52.1818 48.6608 52.1818C50.0244 52.1818 51.1911 52.0152 52.1608 51.6818C53.1305 51.3485 53.8956 50.8864 54.4563 50.2955C55.0169 49.7045 55.3578 49.0303 55.479 48.2727C55.6002 47.5758 55.479 46.9545 55.1153 46.4091C54.7517 45.8636 54.0926 45.3712 53.1381 44.9318C52.1835 44.4924 50.8729 44.0909 49.2063 43.7273L44.7517 42.7273C40.7972 41.8182 37.8123 40.3182 35.7972 38.2273C33.782 36.1364 33.0699 33.2727 33.6608 29.6364C34.1456 26.6667 35.3653 24.0758 37.3199 21.8636C39.2896 19.6364 41.7896 17.9091 44.8199 16.6818C47.8653 15.4394 51.2366 14.8182 54.9335 14.8182C58.6911 14.8182 61.835 15.447 64.3653 16.7045C66.9108 17.9621 68.7366 19.7273 69.8426 22C70.9638 24.2727 71.2669 26.9394 70.7517 30H58.6608ZM126.14 39.5455C125.292 44.6061 123.61 48.8485 121.095 52.2727C118.58 55.697 115.527 58.2803 111.936 60.0227C108.345 61.7652 104.504 62.6364 100.413 62.6364C96.0494 62.6364 92.2616 61.6894 89.0494 59.7955C85.8373 57.9015 83.4964 55.1288 82.0267 51.4773C80.557 47.8258 80.2616 43.3636 81.1403 38.0909C81.9585 33.0303 83.6252 28.7727 86.1403 25.3182C88.6555 21.8636 91.7237 19.25 95.3449 17.4773C98.9661 15.7045 102.837 14.8182 106.959 14.8182C111.292 14.8182 115.057 15.7727 118.254 17.6818C121.466 19.5909 123.799 22.3864 125.254 26.0682C126.724 29.75 127.019 34.2424 126.14 39.5455ZM113.413 38.0909C113.837 35.4242 113.868 33.1818 113.504 31.3636C113.14 29.5303 112.375 28.1515 111.209 27.2273C110.042 26.2879 108.474 25.8182 106.504 25.8182C104.262 25.8182 102.277 26.3636 100.549 27.4545C98.8222 28.5455 97.3903 30.1136 96.254 32.1591C95.1176 34.2045 94.3222 36.6667 93.8676 39.5455C93.3828 42.2424 93.3373 44.4848 93.7313 46.2727C94.1403 48.0606 94.9434 49.4015 96.1403 50.2955C97.3525 51.1894 98.9282 51.6364 100.868 51.6364C103.08 51.6364 105.034 51.1061 106.731 50.0455C108.443 48.9848 109.86 47.447 110.981 45.4318C112.118 43.4167 112.928 40.9697 113.413 38.0909ZM134.66 62L142.387 15.4545H155.023L149.023 51.8182H167.841L166.114 62H134.66ZM197.986 15.4545L190.259 62H177.622L185.349 15.4545H197.986ZM210.374 15.4545H226.102L232.556 41.8182H233.102L248.284 15.4545H264.011L256.284 62H243.92L248.374 35.0909H248.011L233.284 61.6364H225.829L219.92 34.9091H219.556L215.011 62H202.647L210.374 15.4545ZM303.945 15.4545H316.581L311.627 45.2727C311.051 48.8182 309.702 51.8864 307.581 54.4773C305.475 57.053 302.793 59.0455 299.536 60.4545C296.278 61.8485 292.657 62.5455 288.672 62.5455C284.657 62.5455 281.263 61.8485 278.49 60.4545C275.718 59.0455 273.702 57.053 272.445 54.4773C271.202 51.8864 270.869 48.8182 271.445 45.2727L276.399 15.4545H289.036L284.263 44.1818C284.036 45.6212 284.149 46.9015 284.604 48.0227C285.059 49.1439 285.793 50.0303 286.809 50.6818C287.824 51.3182 289.051 51.6364 290.49 51.6364C291.945 51.6364 293.286 51.3182 294.513 50.6818C295.755 50.0303 296.786 49.1439 297.604 48.0227C298.422 46.9015 298.945 45.6212 299.172 44.1818L303.945 15.4545ZM351.623 30C351.76 28.5 351.396 27.3258 350.532 26.4773C349.669 25.6136 348.214 25.1818 346.169 25.1818C344.866 25.1818 343.775 25.3333 342.896 25.6364C342.032 25.9394 341.358 26.3561 340.873 26.8864C340.404 27.4167 340.108 28.0303 339.987 28.7273C339.851 29.2727 339.858 29.7727 340.01 30.2273C340.176 30.6667 340.487 31.0682 340.941 31.4318C341.411 31.7955 342.025 32.1212 342.782 32.4091C343.555 32.697 344.472 32.9545 345.532 33.1818L349.169 34C351.654 34.5455 353.737 35.2652 355.419 36.1591C357.116 37.0379 358.449 38.0833 359.419 39.2955C360.388 40.5076 361.025 41.8636 361.328 43.3636C361.646 44.8636 361.654 46.5 361.351 48.2727C360.835 51.3333 359.646 53.9242 357.782 56.0455C355.919 58.1667 353.487 59.7803 350.487 60.8864C347.487 61.9924 344.017 62.5455 340.078 62.5455C336.048 62.5455 332.623 61.947 329.805 60.75C327.002 59.5379 324.972 57.6894 323.714 55.2045C322.472 52.7045 322.169 49.5152 322.805 45.6364H334.805C334.623 47.0606 334.775 48.2576 335.26 49.2273C335.745 50.197 336.525 50.9318 337.601 51.4318C338.676 51.9318 340.017 52.1818 341.623 52.1818C342.987 52.1818 344.154 52.0152 345.123 51.6818C346.093 51.3485 346.858 50.8864 347.419 50.2955C347.979 49.7045 348.32 49.0303 348.441 48.2727C348.563 47.5758 348.441 46.9545 348.078 46.4091C347.714 45.8636 347.055 45.3712 346.101 44.9318C345.146 44.4924 343.835 44.0909 342.169 43.7273L337.714 42.7273C333.76 41.8182 330.775 40.3182 328.76 38.2273C326.745 36.1364 326.032 33.2727 326.623 29.6364C327.108 26.6667 328.328 24.0758 330.282 21.8636C332.252 19.6364 334.752 17.9091 337.782 16.6818C340.828 15.4394 344.199 14.8182 347.896 14.8182C351.654 14.8182 354.798 15.447 357.328 16.7045C359.873 17.9621 361.699 19.7273 362.805 22C363.926 24.2727 364.229 26.9394 363.714 30H351.623Z" fill="white"/>
<path d="M43.1293 82.5455L40.2316 100H38.1861L30.9589 86.2955H30.7884L28.5043 100H26.3907L29.2884 82.5455H31.3339L38.5952 96.2841H38.7657L41.0498 82.5455H43.1293ZM46.861 100L49.7587 82.5455H60.2928L59.986 84.4205H51.5656L50.5769 90.3182H58.4519L58.1451 92.1932H50.2701L49.2815 98.125H57.8383L57.5315 100H46.861ZM65.2411 84.4205L65.5479 82.5455H78.6388L78.332 84.4205H72.8434L70.2525 100H68.1388L70.7298 84.4205H65.2411ZM95.7555 82.5455H97.8691L95.96 94.1023C95.7611 95.2955 95.3038 96.3608 94.5879 97.2983C93.8719 98.2301 92.96 98.9659 91.8521 99.5057C90.7441 100.04 89.5055 100.307 88.1361 100.307C86.7668 100.307 85.6191 100.04 84.693 99.5057C83.7668 98.9659 83.1021 98.2301 82.6986 97.2983C82.2952 96.3608 82.193 95.2955 82.3918 94.1023L84.3009 82.5455H86.4146L84.5225 93.9318C84.3861 94.7841 84.4515 95.5426 84.7185 96.2074C84.9856 96.8665 85.4344 97.3864 86.0651 97.767C86.7015 98.142 87.5055 98.3295 88.4771 98.3295C89.4486 98.3295 90.3151 98.142 91.0765 97.767C91.8379 97.3864 92.4572 96.8665 92.9344 96.2074C93.4174 95.5426 93.7271 94.7841 93.8634 93.9318L95.7555 82.5455ZM118.331 82.5455L115.433 100H113.388L106.16 86.2955H105.99L103.706 100H101.592L104.49 82.5455H106.535L113.797 96.2841H113.967L116.251 82.5455H118.331ZM122.063 100L124.96 82.5455H135.494L135.188 84.4205H126.767L125.778 90.3182H133.653L133.347 92.1932H125.472L124.483 98.125H133.04L132.733 100H122.063ZM147.956 100L150.854 82.5455H152.968L151.672 90.3182H160.979L162.275 82.5455H164.388L161.49 100H159.377L160.672 92.1932H151.365L150.07 100H147.956ZM184.281 91.4091C183.974 93.2273 183.386 94.7983 182.517 96.1222C181.648 97.4403 180.585 98.4574 179.329 99.1733C178.074 99.8835 176.713 100.239 175.247 100.239C173.736 100.239 172.449 99.8693 171.386 99.1307C170.329 98.3864 169.574 97.3352 169.119 95.9773C168.67 94.6136 168.599 93 168.906 91.1364C169.213 89.3182 169.801 87.75 170.67 86.4318C171.54 85.108 172.605 84.0909 173.866 83.3807C175.128 82.6648 176.497 82.3068 177.974 82.3068C179.474 82.3068 180.75 82.679 181.801 83.4233C182.858 84.1619 183.611 85.2131 184.059 86.5767C184.514 87.9347 184.588 89.5455 184.281 91.4091ZM182.27 91.1364C182.52 89.6477 182.483 88.3949 182.159 87.3778C181.835 86.3608 181.298 85.5909 180.548 85.0682C179.798 84.5455 178.906 84.2841 177.872 84.2841C176.792 84.2841 175.77 84.5597 174.804 85.1108C173.838 85.6562 173.011 86.4602 172.324 87.5227C171.636 88.5795 171.167 89.875 170.917 91.4091C170.667 92.8977 170.704 94.1506 171.028 95.1676C171.352 96.1847 171.889 96.9545 172.639 97.4773C173.389 98 174.281 98.2614 175.315 98.2614C176.395 98.2614 177.417 97.9886 178.383 97.4432C179.349 96.892 180.176 96.0881 180.863 95.0312C181.551 93.9688 182.02 92.6705 182.27 91.1364ZM189.713 84.4205L190.02 82.5455H203.111L202.804 84.4205H197.315L194.724 100H192.611L195.202 84.4205H189.713ZM205.875 100L208.773 82.5455H219.307L219 84.4205H210.58L209.591 90.3182H217.466L217.159 92.1932H209.284L208.296 98.125H216.852L216.546 100H205.875ZM222.619 100L225.517 82.5455H227.63L225.039 98.125H233.153L232.846 100H222.619ZM261.578 88C261.493 87.4261 261.345 86.9119 261.135 86.4574C260.93 85.9972 260.657 85.608 260.317 85.2898C259.976 84.9659 259.564 84.7187 259.081 84.5483C258.603 84.3722 258.049 84.2841 257.419 84.2841C256.385 84.2841 255.385 84.5511 254.419 85.0852C253.459 85.6193 252.626 86.4062 251.922 87.446C251.223 88.4858 250.748 89.7614 250.498 91.2727C250.248 92.7841 250.274 94.0597 250.575 95.0994C250.882 96.1392 251.407 96.9261 252.152 97.4602C252.902 97.9943 253.817 98.2614 254.896 98.2614C255.896 98.2614 256.828 98.0483 257.692 97.6222C258.555 97.1903 259.28 96.5824 259.865 95.7983C260.45 95.0085 260.828 94.0795 260.998 93.0114L261.612 93.1477H256.362L256.703 91.2727H263.351L263.01 93.1477C262.782 94.5909 262.277 95.8438 261.493 96.9062C260.709 97.9688 259.731 98.7898 258.561 99.3693C257.39 99.9489 256.112 100.239 254.726 100.239C253.18 100.239 251.885 99.875 250.839 99.1477C249.794 98.4205 249.058 97.3864 248.632 96.0455C248.206 94.7045 248.146 93.1136 248.453 91.2727C248.674 89.892 249.061 88.6506 249.612 87.5483C250.169 86.4403 250.851 85.4972 251.657 84.7188C252.47 83.9403 253.376 83.3438 254.376 82.929C255.382 82.5142 256.442 82.3068 257.555 82.3068C258.476 82.3068 259.311 82.446 260.061 82.7244C260.817 82.9972 261.467 83.3864 262.013 83.892C262.558 84.392 262.981 84.9915 263.282 85.6903C263.584 86.3835 263.743 87.1534 263.76 88H261.578ZM267.905 100L270.802 82.5455H281.337L281.03 84.4205H272.609L271.621 90.3182H279.496L279.189 92.1932H271.314L270.325 98.125H278.882L278.575 100H267.905ZM296.342 87.0455C296.342 86.108 296.032 85.3977 295.413 84.9148C294.793 84.4261 293.955 84.1818 292.899 84.1818C292.126 84.1818 291.43 84.3068 290.81 84.5568C290.191 84.8068 289.685 85.1506 289.293 85.5881C288.901 86.0256 288.66 86.5227 288.569 87.0795C288.495 87.5455 288.543 87.946 288.714 88.2812C288.884 88.6108 289.126 88.8864 289.438 89.108C289.756 89.3239 290.097 89.5028 290.461 89.6449C290.825 89.7812 291.16 89.892 291.467 89.9773L293.171 90.4545C293.597 90.5739 294.072 90.7386 294.595 90.9489C295.117 91.1591 295.606 91.446 296.06 91.8097C296.515 92.1676 296.862 92.6278 297.1 93.1903C297.345 93.7528 297.399 94.4432 297.262 95.2614C297.103 96.2045 296.714 97.0568 296.095 97.8182C295.481 98.5795 294.668 99.1847 293.657 99.6335C292.651 100.082 291.478 100.307 290.137 100.307C288.887 100.307 287.836 100.105 286.984 99.7017C286.137 99.2983 285.512 98.7358 285.109 98.0142C284.711 97.2926 284.558 96.4545 284.649 95.5H286.83C286.774 96.1591 286.904 96.7045 287.222 97.1364C287.541 97.5625 287.984 97.8807 288.552 98.0909C289.12 98.2955 289.751 98.3977 290.444 98.3977C291.251 98.3977 291.995 98.267 292.677 98.0057C293.364 97.7386 293.933 97.3693 294.381 96.8977C294.836 96.4205 295.114 95.8636 295.217 95.2273C295.319 94.6477 295.239 94.1761 294.978 93.8125C294.717 93.4489 294.339 93.1534 293.845 92.9261C293.35 92.6989 292.808 92.5 292.217 92.3295L290.171 91.7159C288.876 91.3239 287.89 90.7642 287.214 90.0369C286.543 89.3097 286.302 88.358 286.489 87.1818C286.66 86.2045 287.072 85.3523 287.725 84.625C288.379 83.892 289.188 83.3239 290.154 82.9205C291.12 82.5114 292.16 82.3068 293.274 82.3068C294.399 82.3068 295.362 82.5114 296.163 82.9205C296.964 83.3239 297.56 83.8835 297.952 84.5994C298.345 85.3097 298.489 86.125 298.387 87.0455H296.342ZM303.99 84.4205L304.296 82.5455H317.387L317.08 84.4205H311.592L309.001 100H306.887L309.478 84.4205H303.99ZM325.163 82.5455L322.265 100H320.152L323.049 82.5455H325.163ZM345.062 91.4091C344.755 93.2273 344.167 94.7983 343.298 96.1222C342.429 97.4403 341.366 98.4574 340.111 99.1733C338.855 99.8835 337.494 100.239 336.028 100.239C334.517 100.239 333.23 99.8693 332.167 99.1307C331.111 98.3864 330.355 97.3352 329.9 95.9773C329.452 94.6136 329.38 93 329.687 91.1364C329.994 89.3182 330.582 87.75 331.452 86.4318C332.321 85.108 333.386 84.0909 334.648 83.3807C335.909 82.6648 337.278 82.3068 338.755 82.3068C340.255 82.3068 341.531 82.679 342.582 83.4233C343.639 84.1619 344.392 85.2131 344.841 86.5767C345.295 87.9347 345.369 89.5455 345.062 91.4091ZM343.051 91.1364C343.301 89.6477 343.264 88.3949 342.94 87.3778C342.616 86.3608 342.079 85.5909 341.329 85.0682C340.579 84.5455 339.687 84.2841 338.653 84.2841C337.574 84.2841 336.551 84.5597 335.585 85.1108C334.619 85.6562 333.792 86.4602 333.105 87.5227C332.417 88.5795 331.949 89.875 331.699 91.4091C331.449 92.8977 331.486 94.1506 331.809 95.1676C332.133 96.1847 332.67 96.9545 333.42 97.4773C334.17 98 335.062 98.2614 336.096 98.2614C337.176 98.2614 338.199 97.9886 339.165 97.4432C340.13 96.892 340.957 96.0881 341.645 95.0312C342.332 93.9688 342.801 92.6705 343.051 91.1364ZM366.323 82.5455L363.425 100H361.38L354.153 86.2955H353.982L351.698 100H349.584L352.482 82.5455H354.528L361.789 96.2841H361.959L364.244 82.5455H366.323Z" fill="white"/>
</svg>
