<svg width="366" height="140" viewBox="0 0 366 140" fill="none" xmlns="http://www.w3.org/2000/svg">
<path d="M310.576 140H0L54.4256 133H366L310.576 140Z" fill="#231F20"/>
<path d="M45.6608 30C45.7972 28.5 45.4335 27.3258 44.5699 26.4773C43.7063 25.6136 42.2517 25.1818 40.2063 25.1818C38.9032 25.1818 37.8123 25.3333 36.9335 25.6364C36.0699 25.9394 35.3956 26.3561 34.9108 26.8864C34.4411 27.4167 34.1456 28.0303 34.0244 28.7273C33.8881 29.2727 33.8956 29.7727 34.0472 30.2273C34.2138 30.6667 34.5244 31.0682 34.979 31.4318C35.4487 31.7955 36.0623 32.1212 36.8199 32.4091C37.5926 32.697 38.5093 32.9545 39.5699 33.1818L43.2063 34C45.6911 34.5455 47.7744 35.2652 49.4563 36.1591C51.1532 37.0379 52.4866 38.0833 53.4563 39.2955C54.426 40.5076 55.0623 41.8636 55.3653 43.3636C55.6835 44.8636 55.6911 46.5 55.3881 48.2727C54.8729 51.3333 53.6835 53.9242 51.8199 56.0455C49.9563 58.1667 47.5244 59.7803 44.5244 60.8864C41.5244 61.9924 38.0547 62.5455 34.1153 62.5455C30.085 62.5455 26.6608 61.947 23.8426 60.75C21.0396 59.5379 19.0093 57.6894 17.7517 55.2045C16.5093 52.7045 16.2063 49.5152 16.8426 45.6364H28.8426C28.6608 47.0606 28.8123 48.2576 29.2972 49.2273C29.782 50.197 30.5623 50.9318 31.6381 51.4318C32.7138 51.9318 34.0547 52.1818 35.6608 52.1818C37.0244 52.1818 38.1911 52.0152 39.1608 51.6818C40.1305 51.3485 40.8956 50.8864 41.4563 50.2955C42.0169 49.7045 42.3578 49.0303 42.479 48.2727C42.6002 47.5758 42.479 46.9545 42.1153 46.4091C41.7517 45.8636 41.0926 45.3712 40.1381 44.9318C39.1835 44.4924 37.8729 44.0909 36.2063 43.7273L31.7517 42.7273C27.7972 41.8182 24.8123 40.3182 22.7972 38.2273C20.782 36.1364 20.0699 33.2727 20.6608 29.6364C21.1456 26.6667 22.3653 24.0758 24.3199 21.8636C26.2896 19.6364 28.7896 17.9091 31.8199 16.6818C34.8653 15.4394 38.2366 14.8182 41.9335 14.8182C45.6911 14.8182 48.835 15.447 51.3653 16.7045C53.9108 17.9621 55.7366 19.7273 56.8426 22C57.9638 24.2727 58.2669 26.9394 57.7517 30H45.6608ZM113.14 39.5455C112.292 44.6061 110.61 48.8485 108.095 52.2727C105.58 55.697 102.527 58.2803 98.9358 60.0227C95.3449 61.7652 91.504 62.6364 87.4131 62.6364C83.0494 62.6364 79.2616 61.6894 76.0494 59.7955C72.8373 57.9015 70.4964 55.1288 69.0267 51.4773C67.557 47.8258 67.2616 43.3636 68.1403 38.0909C68.9585 33.0303 70.6252 28.7727 73.1403 25.3182C75.6555 21.8636 78.7237 19.25 82.3449 17.4773C85.9661 15.7045 89.8373 14.8182 93.9585 14.8182C98.2919 14.8182 102.057 15.7727 105.254 17.6818C108.466 19.5909 110.799 22.3864 112.254 26.0682C113.724 29.75 114.019 34.2424 113.14 39.5455ZM100.413 38.0909C100.837 35.4242 100.868 33.1818 100.504 31.3636C100.14 29.5303 99.3752 28.1515 98.2085 27.2273C97.0419 26.2879 95.4737 25.8182 93.504 25.8182C91.2616 25.8182 89.2767 26.3636 87.5494 27.4545C85.8222 28.5455 84.3903 30.1136 83.254 32.1591C82.1176 34.2045 81.3222 36.6667 80.8676 39.5455C80.3828 42.2424 80.3373 44.4848 80.7313 46.2727C81.1403 48.0606 81.9434 49.4015 83.1403 50.2955C84.3525 51.1894 85.9282 51.6364 87.8676 51.6364C90.0797 51.6364 92.0343 51.1061 93.7313 50.0455C95.4434 48.9848 96.86 47.447 97.9813 45.4318C99.1176 43.4167 99.9282 40.9697 100.413 38.0909ZM121.66 62L129.387 15.4545H142.023L136.023 51.8182H154.841L153.114 62H121.66ZM184.986 15.4545L177.259 62H164.622L172.349 15.4545H184.986ZM197.374 15.4545H213.102L219.556 41.8182H220.102L235.284 15.4545H251.011L243.284 62H230.92L235.374 35.0909H235.011L220.284 61.6364H212.829L206.92 34.9091H206.556L202.011 62H189.647L197.374 15.4545ZM290.945 15.4545H303.581L298.627 45.2727C298.051 48.8182 296.702 51.8864 294.581 54.4773C292.475 57.053 289.793 59.0455 286.536 60.4545C283.278 61.8485 279.657 62.5455 275.672 62.5455C271.657 62.5455 268.263 61.8485 265.49 60.4545C262.718 59.0455 260.702 57.053 259.445 54.4773C258.202 51.8864 257.869 48.8182 258.445 45.2727L263.399 15.4545H276.036L271.263 44.1818C271.036 45.6212 271.149 46.9015 271.604 48.0227C272.059 49.1439 272.793 50.0303 273.809 50.6818C274.824 51.3182 276.051 51.6364 277.49 51.6364C278.945 51.6364 280.286 51.3182 281.513 50.6818C282.755 50.0303 283.786 49.1439 284.604 48.0227C285.422 46.9015 285.945 45.6212 286.172 44.1818L290.945 15.4545ZM338.623 30C338.76 28.5 338.396 27.3258 337.532 26.4773C336.669 25.6136 335.214 25.1818 333.169 25.1818C331.866 25.1818 330.775 25.3333 329.896 25.6364C329.032 25.9394 328.358 26.3561 327.873 26.8864C327.404 27.4167 327.108 28.0303 326.987 28.7273C326.851 29.2727 326.858 29.7727 327.01 30.2273C327.176 30.6667 327.487 31.0682 327.941 31.4318C328.411 31.7955 329.025 32.1212 329.782 32.4091C330.555 32.697 331.472 32.9545 332.532 33.1818L336.169 34C338.654 34.5455 340.737 35.2652 342.419 36.1591C344.116 37.0379 345.449 38.0833 346.419 39.2955C347.388 40.5076 348.025 41.8636 348.328 43.3636C348.646 44.8636 348.654 46.5 348.351 48.2727C347.835 51.3333 346.646 53.9242 344.782 56.0455C342.919 58.1667 340.487 59.7803 337.487 60.8864C334.487 61.9924 331.017 62.5455 327.078 62.5455C323.048 62.5455 319.623 61.947 316.805 60.75C314.002 59.5379 311.972 57.6894 310.714 55.2045C309.472 52.7045 309.169 49.5152 309.805 45.6364H321.805C321.623 47.0606 321.775 48.2576 322.26 49.2273C322.745 50.197 323.525 50.9318 324.601 51.4318C325.676 51.9318 327.017 52.1818 328.623 52.1818C329.987 52.1818 331.154 52.0152 332.123 51.6818C333.093 51.3485 333.858 50.8864 334.419 50.2955C334.979 49.7045 335.32 49.0303 335.441 48.2727C335.563 47.5758 335.441 46.9545 335.078 46.4091C334.714 45.8636 334.055 45.3712 333.101 44.9318C332.146 44.4924 330.835 44.0909 329.169 43.7273L324.714 42.7273C320.76 41.8182 317.775 40.3182 315.76 38.2273C313.745 36.1364 313.032 33.2727 313.623 29.6364C314.108 26.6667 315.328 24.0758 317.282 21.8636C319.252 19.6364 321.752 17.9091 324.782 16.6818C327.828 15.4394 331.199 14.8182 334.896 14.8182C338.654 14.8182 341.798 15.447 344.328 16.7045C346.873 17.9621 348.699 19.7273 349.805 22C350.926 24.2727 351.229 26.9394 350.714 30H338.623Z" fill="#231F20"/>
<path d="M30.1293 82.5455L27.2316 100H25.1861L17.9589 86.2955H17.7884L15.5043 100H13.3907L16.2884 82.5455H18.3339L25.5952 96.2841H25.7657L28.0498 82.5455H30.1293ZM33.861 100L36.7587 82.5455H47.2928L46.986 84.4205H38.5656L37.5769 90.3182H45.4519L45.1451 92.1932H37.2701L36.2815 98.125H44.8383L44.5315 100H33.861ZM52.2411 84.4205L52.5479 82.5455H65.6388L65.332 84.4205H59.8434L57.2525 100H55.1388L57.7298 84.4205H52.2411ZM82.7555 82.5455H84.8691L82.96 94.1023C82.7611 95.2955 82.3038 96.3608 81.5879 97.2983C80.8719 98.2301 79.96 98.9659 78.8521 99.5057C77.7441 100.04 76.5055 100.307 75.1361 100.307C73.7668 100.307 72.6191 100.04 71.693 99.5057C70.7668 98.9659 70.1021 98.2301 69.6986 97.2983C69.2952 96.3608 69.193 95.2955 69.3918 94.1023L71.3009 82.5455H73.4146L71.5225 93.9318C71.3861 94.7841 71.4515 95.5426 71.7185 96.2074C71.9856 96.8665 72.4344 97.3864 73.0651 97.767C73.7015 98.142 74.5055 98.3295 75.4771 98.3295C76.4486 98.3295 77.3151 98.142 78.0765 97.767C78.8379 97.3864 79.4572 96.8665 79.9344 96.2074C80.4174 95.5426 80.7271 94.7841 80.8634 93.9318L82.7555 82.5455ZM105.331 82.5455L102.433 100H100.388L93.1604 86.2955H92.99L90.7059 100H88.5923L91.49 82.5455H93.5354L100.797 96.2841H100.967L103.251 82.5455H105.331ZM109.063 100L111.96 82.5455H122.494L122.188 84.4205H113.767L112.778 90.3182H120.653L120.347 92.1932H112.472L111.483 98.125H120.04L119.733 100H109.063ZM134.956 100L137.854 82.5455H139.968L138.672 90.3182H147.979L149.275 82.5455H151.388L148.49 100H146.377L147.672 92.1932H138.365L137.07 100H134.956ZM171.281 91.4091C170.974 93.2273 170.386 94.7983 169.517 96.1222C168.648 97.4403 167.585 98.4574 166.329 99.1733C165.074 99.8835 163.713 100.239 162.247 100.239C160.736 100.239 159.449 99.8693 158.386 99.1307C157.329 98.3864 156.574 97.3352 156.119 95.9773C155.67 94.6136 155.599 93 155.906 91.1364C156.213 89.3182 156.801 87.75 157.67 86.4318C158.54 85.108 159.605 84.0909 160.866 83.3807C162.128 82.6648 163.497 82.3068 164.974 82.3068C166.474 82.3068 167.75 82.679 168.801 83.4233C169.858 84.1619 170.611 85.2131 171.059 86.5767C171.514 87.9347 171.588 89.5455 171.281 91.4091ZM169.27 91.1364C169.52 89.6477 169.483 88.3949 169.159 87.3778C168.835 86.3608 168.298 85.5909 167.548 85.0682C166.798 84.5455 165.906 84.2841 164.872 84.2841C163.792 84.2841 162.77 84.5597 161.804 85.1108C160.838 85.6562 160.011 86.4602 159.324 87.5227C158.636 88.5795 158.167 89.875 157.917 91.4091C157.667 92.8977 157.704 94.1506 158.028 95.1676C158.352 96.1847 158.889 96.9545 159.639 97.4773C160.389 98 161.281 98.2614 162.315 98.2614C163.395 98.2614 164.417 97.9886 165.383 97.4432C166.349 96.892 167.176 96.0881 167.863 95.0312C168.551 93.9688 169.02 92.6705 169.27 91.1364ZM176.713 84.4205L177.02 82.5455H190.111L189.804 84.4205H184.315L181.724 100H179.611L182.202 84.4205H176.713ZM192.875 100L195.773 82.5455H206.307L206 84.4205H197.58L196.591 90.3182H204.466L204.159 92.1932H196.284L195.296 98.125H203.852L203.546 100H192.875ZM209.619 100L212.517 82.5455H214.63L212.039 98.125H220.153L219.846 100H209.619ZM248.578 88C248.493 87.4261 248.345 86.9119 248.135 86.4574C247.93 85.9972 247.657 85.608 247.317 85.2898C246.976 84.9659 246.564 84.7187 246.081 84.5483C245.603 84.3722 245.049 84.2841 244.419 84.2841C243.385 84.2841 242.385 84.5511 241.419 85.0852C240.459 85.6193 239.626 86.4062 238.922 87.446C238.223 88.4858 237.748 89.7614 237.498 91.2727C237.248 92.7841 237.274 94.0597 237.575 95.0994C237.882 96.1392 238.407 96.9261 239.152 97.4602C239.902 97.9943 240.817 98.2614 241.896 98.2614C242.896 98.2614 243.828 98.0483 244.692 97.6222C245.555 97.1903 246.28 96.5824 246.865 95.7983C247.45 95.0085 247.828 94.0795 247.998 93.0114L248.612 93.1477H243.362L243.703 91.2727H250.351L250.01 93.1477C249.782 94.5909 249.277 95.8438 248.493 96.9062C247.709 97.9688 246.731 98.7898 245.561 99.3693C244.39 99.9489 243.112 100.239 241.726 100.239C240.18 100.239 238.885 99.875 237.839 99.1477C236.794 98.4205 236.058 97.3864 235.632 96.0455C235.206 94.7045 235.146 93.1136 235.453 91.2727C235.674 89.892 236.061 88.6506 236.612 87.5483C237.169 86.4403 237.851 85.4972 238.657 84.7188C239.47 83.9403 240.376 83.3438 241.376 82.929C242.382 82.5142 243.442 82.3068 244.555 82.3068C245.476 82.3068 246.311 82.446 247.061 82.7244C247.817 82.9972 248.467 83.3864 249.013 83.892C249.558 84.392 249.981 84.9915 250.282 85.6903C250.584 86.3835 250.743 87.1534 250.76 88H248.578ZM254.905 100L257.802 82.5455H268.337L268.03 84.4205H259.609L258.621 90.3182H266.496L266.189 92.1932H258.314L257.325 98.125H265.882L265.575 100H254.905ZM283.342 87.0455C283.342 86.108 283.032 85.3977 282.413 84.9148C281.793 84.4261 280.955 84.1818 279.899 84.1818C279.126 84.1818 278.43 84.3068 277.81 84.5568C277.191 84.8068 276.685 85.1506 276.293 85.5881C275.901 86.0256 275.66 86.5227 275.569 87.0795C275.495 87.5455 275.543 87.946 275.714 88.2812C275.884 88.6108 276.126 88.8864 276.438 89.108C276.756 89.3239 277.097 89.5028 277.461 89.6449C277.825 89.7812 278.16 89.892 278.467 89.9773L280.171 90.4545C280.597 90.5739 281.072 90.7386 281.595 90.9489C282.117 91.1591 282.606 91.446 283.06 91.8097C283.515 92.1676 283.862 92.6278 284.1 93.1903C284.345 93.7528 284.399 94.4432 284.262 95.2614C284.103 96.2045 283.714 97.0568 283.095 97.8182C282.481 98.5795 281.668 99.1847 280.657 99.6335C279.651 100.082 278.478 100.307 277.137 100.307C275.887 100.307 274.836 100.105 273.984 99.7017C273.137 99.2983 272.512 98.7358 272.109 98.0142C271.711 97.2926 271.558 96.4545 271.649 95.5H273.83C273.774 96.1591 273.904 96.7045 274.222 97.1364C274.541 97.5625 274.984 97.8807 275.552 98.0909C276.12 98.2955 276.751 98.3977 277.444 98.3977C278.251 98.3977 278.995 98.267 279.677 98.0057C280.364 97.7386 280.933 97.3693 281.381 96.8977C281.836 96.4205 282.114 95.8636 282.217 95.2273C282.319 94.6477 282.239 94.1761 281.978 93.8125C281.717 93.4489 281.339 93.1534 280.845 92.9261C280.35 92.6989 279.808 92.5 279.217 92.3295L277.171 91.7159C275.876 91.3239 274.89 90.7642 274.214 90.0369C273.543 89.3097 273.302 88.358 273.489 87.1818C273.66 86.2045 274.072 85.3523 274.725 84.625C275.379 83.892 276.188 83.3239 277.154 82.9205C278.12 82.5114 279.16 82.3068 280.274 82.3068C281.399 82.3068 282.362 82.5114 283.163 82.9205C283.964 83.3239 284.56 83.8835 284.952 84.5994C285.345 85.3097 285.489 86.125 285.387 87.0455H283.342ZM290.99 84.4205L291.296 82.5455H304.387L304.08 84.4205H298.592L296.001 100H293.887L296.478 84.4205H290.99ZM312.163 82.5455L309.265 100H307.152L310.049 82.5455H312.163ZM332.062 91.4091C331.755 93.2273 331.167 94.7983 330.298 96.1222C329.429 97.4403 328.366 98.4574 327.111 99.1733C325.855 99.8835 324.494 100.239 323.028 100.239C321.517 100.239 320.23 99.8693 319.167 99.1307C318.111 98.3864 317.355 97.3352 316.9 95.9773C316.452 94.6136 316.38 93 316.687 91.1364C316.994 89.3182 317.582 87.75 318.452 86.4318C319.321 85.108 320.386 84.0909 321.648 83.3807C322.909 82.6648 324.278 82.3068 325.755 82.3068C327.255 82.3068 328.531 82.679 329.582 83.4233C330.639 84.1619 331.392 85.2131 331.841 86.5767C332.295 87.9347 332.369 89.5455 332.062 91.4091ZM330.051 91.1364C330.301 89.6477 330.264 88.3949 329.94 87.3778C329.616 86.3608 329.079 85.5909 328.329 85.0682C327.579 84.5455 326.687 84.2841 325.653 84.2841C324.574 84.2841 323.551 84.5597 322.585 85.1108C321.619 85.6562 320.792 86.4602 320.105 87.5227C319.417 88.5795 318.949 89.875 318.699 91.4091C318.449 92.8977 318.486 94.1506 318.809 95.1676C319.133 96.1847 319.67 96.9545 320.42 97.4773C321.17 98 322.062 98.2614 323.096 98.2614C324.176 98.2614 325.199 97.9886 326.165 97.4432C327.13 96.892 327.957 96.0881 328.645 95.0312C329.332 93.9688 329.801 92.6705 330.051 91.1364ZM353.323 82.5455L350.425 100H348.38L341.153 86.2955H340.982L338.698 100H336.584L339.482 82.5455H341.528L348.789 96.2841H348.959L351.244 82.5455H353.323Z" fill="#231F20"/>
</svg>
